<?xml version="1.0" encoding="UTF-8"?>
<svg version="1.1" xmlns="http://www.w3.org/2000/svg" width="160" height="160">
    <path d="M0 0 C52.8 0 105.6 0 160 0 C160 52.8 160 105.6 160 160 C107.2 160 54.4 160 0 160 C0 107.2 0 54.4 0 0 Z " fill="#030303" transform="translate(0,0)"/>
    <path d="M0 0 C0.94673584 0.00410889 1.89347168 0.00821777 2.86889648 0.01245117 C3.89563477 0.01438477 4.92237305 0.01631836 5.98022461 0.01831055 C7.05594727 0.03055664 8.13166992 0.04280273 9.23999023 0.05541992 C10.31958008 0.05606445 11.39916992 0.05670898 12.51147461 0.05737305 C20.53734426 0.10277394 20.53734426 0.10277394 21.67749023 1.24291992 C21.76592817 3.69122419 21.79277775 6.11112591 21.77514648 8.55932617 C21.77373154 9.29038071 21.77231659 10.02143524 21.77085876 10.77464294 C21.76524432 13.11827624 21.75268945 15.46181531 21.73999023 17.80541992 C21.73497709 19.390705 21.73041386 20.97599158 21.72631836 22.5612793 C21.7152702 26.45519602 21.69799595 30.34904198 21.67749023 34.24291992 C22.95624023 33.99541992 24.23499023 33.74791992 25.55249023 33.49291992 C26.27178711 33.35370117 26.99108398 33.21448242 27.73217773 33.07104492 C30.20570426 32.26614573 30.20570426 32.26614573 31.67749023 28.24291992 C40.58749023 28.24291992 49.49749023 28.24291992 58.67749023 28.24291992 C58.67749023 24.61291992 58.67749023 20.98291992 58.67749023 17.24291992 C52.07749023 16.91291992 45.47749023 16.58291992 38.67749023 16.24291992 C42.44810922 10.58699145 44.49007031 7.61727944 50.67749023 5.24291992 C58.04196343 4.00047818 63.629289 5.00393673 69.93530273 8.95385742 C71.67749023 10.24291992 71.67749023 10.24291992 73.67749023 12.24291992 C74.00749023 8.61291992 74.33749023 4.98291992 74.67749023 1.24291992 C75.00749023 1.24291992 75.33749023 1.24291992 75.67749023 1.24291992 C75.67749023 15.10291992 75.67749023 28.96291992 75.67749023 43.24291992 C74.19249023 43.73791992 74.19249023 43.73791992 72.67749023 44.24291992 C73.30977539 45.16524414 73.30977539 45.16524414 73.95483398 46.10620117 C74.50268555 46.91444336 75.05053711 47.72268555 75.61499023 48.55541992 C76.16026367 49.35592773 76.70553711 50.15643555 77.26733398 50.98120117 C80.43225741 56.05735259 80.26008132 61.44197729 79.67749023 67.24291992 C76.90319634 73.23539474 72.25265473 76.92142507 66.13061523 79.18432617 C47.77946878 84.54970374 22.74013786 85.24437146 5.05249023 77.43041992 C0.81314974 75.03828661 -2.1422048 71.60352985 -4.32250977 67.24291992 C-5.26913985 59.56203527 -4.59496953 54.2852508 -0.02563477 47.98510742 C1.67749023 46.24291992 1.67749023 46.24291992 5.67749023 44.24291992 C5.67749023 53.48291992 5.67749023 62.72291992 5.67749023 72.24291992 C10.95749023 72.24291992 16.23749023 72.24291992 21.67749023 72.24291992 C21.67749023 60.03291992 21.67749023 47.82291992 21.67749023 35.24291992 C13.59409922 38.5607148 13.59409922 38.5607148 5.67749023 42.24291992 C5.67749023 33.66291992 5.67749023 25.08291992 5.67749023 16.24291992 C3.03749023 16.24291992 0.39749023 16.24291992 -2.32250977 16.24291992 C-2.98250977 15.91291992 -3.64250977 15.58291992 -4.32250977 15.24291992 C-4.37637605 13.11819417 -4.41524047 10.9930834 -4.44750977 8.86791992 C-4.47071289 7.68456055 -4.49391602 6.50120117 -4.51782227 5.28198242 C-4.28231627 1.61750914 -3.76640423 0.39394221 0 0 Z "
          fill="#F3F4F1" transform="translate(42.322509765625,42.757080078125)"/>
    <path d="M0 0 C1.16390259 -0.00954712 1.16390259 -0.00954712 2.35131836 -0.01928711 C15.67493416 0.27433457 28.54517888 7.07587172 38.00390625 16.15625 C48.80890605 27.75374531 52.69636328 41.43214637 52.4765625 56.91796875 C52.16787566 64.50574061 49.7614061 70.52301201 45.1875 76.5 C40.30355876 71.70730327 37.72761742 67.89190599 37.56640625 60.92578125 C37.60816833 57.34020837 37.75189444 53.76796868 37.90429688 50.18554688 C38.16973523 43.86600413 38.16973523 43.86600413 35.51123047 38.40380859 C33.46065906 36.83751198 31.5016234 35.63455181 29.1875 34.5 C28.49624023 34.13108643 27.80498047 33.76217285 27.09277344 33.38208008 C22.7696067 31.38059348 17.79782363 31.82489629 13.1875 32.5 C8.465398 34.65382206 5.0675672 37.1798992 2.1875 41.5 C8.4575 42.16 14.7275 42.82 21.1875 43.5 C21.1875 47.13 21.1875 50.76 21.1875 54.5 C7.8225 54.995 7.8225 54.995 -5.8125 55.5 C-6.4725 56.82 -7.1325 58.14 -7.8125 59.5 C-10.4525 59.83 -13.0925 60.16 -15.8125 60.5 C-16.1425 49.61 -16.4725 38.72 -16.8125 27.5 C-20.586875 27.479375 -24.36125 27.45875 -28.25 27.4375 C-30.03748657 27.42384399 -30.03748657 27.42384399 -31.86108398 27.40991211 C-32.79251221 27.40741455 -33.72394043 27.40491699 -34.68359375 27.40234375 C-35.64193115 27.39710693 -36.60026855 27.39187012 -37.58764648 27.38647461 C-39.78535339 27.2494687 -39.78535339 27.2494687 -40.8125 28.5 C-41.04731693 30.68292774 -41.22613323 32.87203174 -41.375 35.0625 C-41.45878906 36.26003906 -41.54257812 37.45757812 -41.62890625 38.69140625 C-41.68949219 39.61824219 -41.75007813 40.54507813 -41.8125 41.5 C-40.4925 42.16 -39.1725 42.82 -37.8125 43.5 C-37.9775 44.16 -38.1425 44.82 -38.3125 45.5 C-39.30054054 51.42824325 -39.32080918 55.56486848 -36.875 61 C-36.02734375 63.2578125 -36.02734375 63.2578125 -35.8125 65.5 C-37.62623435 68.74325082 -40.06126485 71.03836855 -42.8125 73.5 C-43.81699431 74.4954854 -44.81869177 75.49384633 -45.8125 76.5 C-46.62924796 74.75197854 -47.44073451 73.00149811 -48.25 71.25 C-48.70246094 70.27546875 -49.15492187 69.3009375 -49.62109375 68.296875 C-53.99990147 58.01744442 -53.04879329 44.31804765 -49 34.09765625 C-48.608125 33.24042969 -48.21625 32.38320313 -47.8125 31.5 C-47.461875 30.71496094 -47.11125 29.92992188 -46.75 29.12109375 C-40.5713896 16.78532646 -29.9755436 7.80784257 -17.375 2.5625 C-11.5289529 0.62447782 -6.14749712 0.04272857 0 0 Z "
          fill="#2B2BF6" transform="translate(79.8125,16.5)"/>
    <path d="M0 0 C2.69930593 -0.03056886 5.39825959 -0.05278666 8.09765625 -0.0703125 C8.85453735 -0.07973877 9.61141846 -0.08916504 10.39123535 -0.09887695 C20.98385004 -0.15033905 30.56362717 2.29942955 39 9 C39 9.66 39 10.32 39 11 C31.41 11 23.82 11 16 11 C16 15.29 16 19.58 16 24 C17.93746094 23.98839844 19.87492187 23.97679688 21.87109375 23.96484375 C24.39322821 23.95546779 26.9153637 23.94636738 29.4375 23.9375 C30.71689453 23.92912109 31.99628906 23.92074219 33.31445312 23.91210938 C35.13686523 23.90727539 35.13686523 23.90727539 36.99609375 23.90234375 C38.12200928 23.89710693 39.2479248 23.89187012 40.40795898 23.88647461 C43 24 43 24 44 25 C44.09909302 27.33160055 44.12970504 29.66629942 44.125 32 C44.12886719 33.918125 44.12886719 33.918125 44.1328125 35.875 C44 39 44 39 43 40 C39.90918535 40.1011692 36.84117445 40.13968558 33.75 40.1328125 C32.82155273 40.13376923 31.89310547 40.13472595 30.93652344 40.13571167 C28.96940035 40.13639355 27.00227504 40.13453872 25.03515625 40.13037109 C22.01296974 40.12502295 18.99093185 40.13031582 15.96875 40.13671875 C14.06249967 40.13605797 12.15624943 40.13477681 10.25 40.1328125 C8.88439941 40.13584885 8.88439941 40.13584885 7.49121094 40.13894653 C1.11494969 40.11494969 1.11494969 40.11494969 0 39 C-0.08865208 36.1156618 -0.11521296 33.25537842 -0.09765625 30.37109375 C-0.0962413 29.50686295 -0.09482635 28.64263214 -0.09336853 27.75221252 C-0.08775239 24.98060708 -0.07519719 22.2090812 -0.0625 19.4375 C-0.05748708 17.5631522 -0.05292381 15.68880315 -0.04882812 13.81445312 C-0.03777772 9.20960456 -0.0205023 4.60481579 0 0 Z "
          fill="#FEFE08" transform="translate(73,76)"/>
    <path d="M0 0 C1.36560059 0.00303635 1.36560059 0.00303635 2.75878906 0.00613403 C3.68723633 0.00517731 4.61568359 0.00422058 5.57226562 0.00323486 C7.53938871 0.00255298 9.50651403 0.00440781 11.47363281 0.00857544 C14.49581932 0.01392358 17.51785721 0.00863071 20.54003906 0.00222778 C22.44628939 0.00288856 24.35253963 0.00416972 26.25878906 0.00613403 C27.16918945 0.0041098 28.07958984 0.00208557 29.01757812 0 C35.39383938 0.02399685 35.39383938 0.02399685 36.50878906 1.13894653 C36.58137852 3.32534106 36.59252689 5.51395042 36.57128906 7.70144653 C36.56226563 8.8989856 36.55324219 10.09652466 36.54394531 11.33035278 C36.53234375 12.25718872 36.52074219 13.18402466 36.50878906 14.13894653 C35.97769531 13.72902466 35.44660156 13.31910278 34.89941406 12.89675903 C34.19300781 12.35793091 33.48660156 11.81910278 32.75878906 11.26394653 C32.06269531 10.73027466 31.36660156 10.19660278 30.64941406 9.64675903 C24.83707746 5.55266792 19.5287654 5.11099005 12.50878906 6.13894653 C7.78668706 8.2927686 4.38885626 10.81884573 1.50878906 15.13894653 C7.77878906 15.79894653 14.04878906 16.45894653 20.50878906 17.13894653 C20.50878906 20.76894653 20.50878906 24.39894653 20.50878906 28.13894653 C7.14378906 28.63394653 7.14378906 28.63394653 -6.49121094 29.13894653 C-7.15121094 30.45894653 -7.81121094 31.77894653 -8.49121094 33.13894653 C-11.16911556 33.97780822 -13.66500503 33.95661067 -16.49121094 34.13894653 C-16.52061551 30.97229987 -16.53814409 27.80568907 -16.55371094 24.63894653 C-16.56208984 23.75207153 -16.57046875 22.86519653 -16.57910156 21.95144653 C-16.5988469 16.58071568 -16.27956987 11.4526099 -15.49121094 6.13894653 C-12.85121094 7.12894653 -10.21121094 8.11894653 -7.49121094 9.13894653 C-7.51183594 7.83957153 -7.53246094 6.54019653 -7.55371094 5.20144653 C-7.57520548 3.8472902 -7.56269292 2.49138571 -7.49121094 1.13894653 C-5.54257169 -0.80969271 -2.59312374 0.00975913 0 0 Z "
          fill="#150B11" transform="translate(80.4912109375,42.861053466796875)"/>
    <path d="M0 0 C0.33 0 0.66 0 1 0 C1 13.86 1 27.72 1 42 C-0.32 42.66 -1.64 43.32 -3 44 C-3.56847656 43.60167969 -4.13695312 43.20335937 -4.72265625 42.79296875 C-9.34280633 39.62288247 -13.7245409 36.97829716 -19 35 C-19.61746094 34.73316406 -20.23492187 34.46632812 -20.87109375 34.19140625 C-28.30655233 31.2537676 -36.10700499 31.28085504 -44 31 C-43.67 29.68 -43.34 28.36 -43 27 C-34.09 27 -25.18 27 -16 27 C-16 23.37 -16 19.74 -16 16 C-22.6 15.67 -29.2 15.34 -36 15 C-32.22938102 9.34407153 -30.18741992 6.37435952 -24 4 C-16.6355268 2.75755826 -11.04820123 3.76101681 -4.7421875 7.7109375 C-3 9 -3 9 -1 11 C-0.67 7.37 -0.34 3.74 0 0 Z "
          fill="#F907F1" transform="translate(117,44)"/>
    <path d="M0 0 C-4.29668768 9.78936058 -13.55774849 15.03028465 -23 19 C-32.73658687 22.24552896 -46.29797641 21.19460104 -55.37890625 16.69921875 C-60.08124803 13.65075575 -64.07378101 9.97836991 -68 6 C-68.58652344 5.45601562 -69.17304687 4.91203125 -69.77734375 4.3515625 C-71 3 -71 3 -71 1 C-69.3743193 1.30893932 -67.74947252 1.6222695 -66.125 1.9375 C-65.22007813 2.11152344 -64.31515625 2.28554687 -63.3828125 2.46484375 C-61 3 -61 3 -59 4 C-41.21531137 6.48372376 -20.68251807 6.94780826 -3.70703125 0.5859375 C-2 0 -2 0 0 0 Z "
          fill="#03F1F1" transform="translate(116,124)"/>
    <path d="M0 0 C0 12.21 0 24.42 0 37 C-2.73077876 38.36538938 -4.95560367 38.13231826 -8 38.125 C-9.60875 38.12886719 -9.60875 38.12886719 -11.25 38.1328125 C-14 38 -14 38 -16 37 C-16.36718794 32.98271172 -16.67214666 28.96581078 -16.92163086 24.93945312 C-17.01489571 23.57264618 -17.12470677 22.20685921 -17.25170898 20.84277344 C-17.65469565 16.44363609 -17.86070889 12.34553833 -17 8 C-13.09081034 3.41110485 -6.08976851 0 0 0 Z "
          fill="#04FE04" transform="translate(64,78)"/>
    <path d="M0 0 C3.90573091 4.95004399 4.62595726 10.26147466 4.39453125 16.44140625 C3.83337962 20.0805579 2.43777679 22.28362015 0 25 C-3.07777284 27.05184856 -3.57351565 27.24373768 -7.01245117 27.13525391 C-7.81305466 27.11508209 -8.61365814 27.09491028 -9.43852234 27.0741272 C-10.29798965 27.04193085 -11.15745697 27.0097345 -12.04296875 26.9765625 C-13.36836418 26.93902359 -13.36836418 26.93902359 -14.72053528 26.90072632 C-17.54324799 26.81854151 -20.36525944 26.72194628 -23.1875 26.625 C-25.10088279 26.56675887 -27.01429438 26.50945563 -28.92773438 26.453125 C-33.61889306 26.31296494 -38.30947363 26.15987917 -43 26 C-43 25.67 -43 25.34 -43 25 C-29.47 24.67 -15.94 24.34 -2 24 C-2 19.38 -2 14.76 -2 10 C-10.91 9.67 -19.82 9.34 -29 9 C-29 4.71 -29 0.42 -29 -4 C-25.29173587 -4.3035127 -21.58726645 -4.56874275 -17.875 -4.8125 C-16.30492187 -4.94688477 -16.30492187 -4.94688477 -14.703125 -5.08398438 C-7.86514518 -5.49512873 -4.60180538 -5.23679476 0 0 Z "
          fill="#FBFBF1" transform="translate(118,91)"/>
    <path d="M0 0 C0.94673584 0.00410889 1.89347168 0.00821777 2.86889648 0.01245117 C3.89563477 0.01438477 4.92237305 0.01631836 5.98022461 0.01831055 C7.05594727 0.03055664 8.13166992 0.04280273 9.23999023 0.05541992 C10.31958008 0.05606445 11.39916992 0.05670898 12.51147461 0.05737305 C20.53734426 0.10277394 20.53734426 0.10277394 21.67749023 1.24291992 C21.75007969 3.42931445 21.76122806 5.61792381 21.73999023 7.80541992 C21.7309668 9.00295898 21.72194336 10.20049805 21.71264648 11.43432617 C21.70104492 12.36116211 21.68944336 13.28799805 21.67749023 14.24291992 C20.66428711 14.38987305 20.66428711 14.38987305 19.63061523 14.53979492 C18.73858398 14.68932617 17.84655273 14.83885742 16.92749023 14.99291992 C16.04577148 15.13213867 15.16405273 15.27135742 14.25561523 15.41479492 C10.99598939 16.46182625 9.66499322 17.44569349 7.67749023 20.24291992 C7.19424818 23.74648342 7.19424818 23.74648342 7.42749023 27.49291992 C7.46358398 28.75620117 7.49967773 30.01948242 7.53686523 31.32104492 C7.58327148 32.28526367 7.62967773 33.24948242 7.67749023 34.24291992 C9.32749023 34.24291992 10.97749023 34.24291992 12.67749023 34.24291992 C13.00749023 34.90291992 13.33749023 35.56291992 13.67749023 36.24291992 C12.68749023 36.90291992 11.69749023 37.56291992 10.67749023 38.24291992 C10.16186523 38.94416992 9.64624023 39.64541992 9.11499023 40.36791992 C8.40342773 41.29604492 8.40342773 41.29604492 7.67749023 42.24291992 C7.01749023 42.24291992 6.35749023 42.24291992 5.67749023 42.24291992 C5.67749023 33.66291992 5.67749023 25.08291992 5.67749023 16.24291992 C3.03749023 16.24291992 0.39749023 16.24291992 -2.32250977 16.24291992 C-2.98250977 15.91291992 -3.64250977 15.58291992 -4.32250977 15.24291992 C-4.37637605 13.11819417 -4.41524047 10.9930834 -4.44750977 8.86791992 C-4.47071289 7.68456055 -4.49391602 6.50120117 -4.51782227 5.28198242 C-4.28231627 1.61750914 -3.76640423 0.39394221 0 0 Z "
          fill="#F90EF7" transform="translate(42.322509765625,42.757080078125)"/>
    <path d="M0 0 C1.36560059 0.00303635 1.36560059 0.00303635 2.75878906 0.00613403 C3.68723633 0.00517731 4.61568359 0.00422058 5.57226562 0.00323486 C7.53938871 0.00255298 9.50651403 0.00440781 11.47363281 0.00857544 C14.49581932 0.01392358 17.51785721 0.00863071 20.54003906 0.00222778 C22.44628939 0.00288856 24.35253963 0.00416972 26.25878906 0.00613403 C27.16918945 0.0041098 28.07958984 0.00208557 29.01757812 0 C35.39383938 0.02399685 35.39383938 0.02399685 36.50878906 1.13894653 C36.58137852 3.32534106 36.59252689 5.51395042 36.57128906 7.70144653 C36.56226563 8.8989856 36.55324219 10.09652466 36.54394531 11.33035278 C36.53234375 12.25718872 36.52074219 13.18402466 36.50878906 14.13894653 C35.97769531 13.72902466 35.44660156 13.31910278 34.89941406 12.89675903 C34.19300781 12.35793091 33.48660156 11.81910278 32.75878906 11.26394653 C32.06269531 10.73027466 31.36660156 10.19660278 30.64941406 9.64675903 C24.83097849 5.54837193 19.53552501 5.1237774 12.50878906 6.13894653 C7.81050567 8.24192069 4.19412104 11.29013637 0.75878906 15.07644653 C-0.35496094 16.09738403 -0.35496094 16.09738403 -1.49121094 17.13894653 C-5.68168713 16.94847034 -5.68168713 16.94847034 -7.49121094 15.13894653 C-7.59030396 12.80734598 -7.62091598 10.47264712 -7.61621094 8.13894653 C-7.61878906 6.86019653 -7.62136719 5.58144653 -7.62402344 4.26394653 C-7.38860308 -1.275356 -4.93808837 0.01858433 0 0 Z "
          fill="#FB0420" transform="translate(80.4912109375,42.861053466796875)"/>
    <path d="M0 0 C5.07053328 0.02909919 7.4857843 1.39012975 11.09765625 4.83203125 C12.375 6.4375 12.375 6.4375 13.375 9.4375 C14.035 9.1075 14.695 8.7775 15.375 8.4375 C15.74447791 15.82705823 15.74447791 15.82705823 13.9375 18.8125 C13.421875 19.34875 12.90625 19.885 12.375 20.4375 C12.045 21.0975 11.715 21.7575 11.375 22.4375 C10.385 22.4375 9.395 22.4375 8.375 22.4375 C8.375 23.4275 8.375 24.4175 8.375 25.4375 C7.0625 25 5.75 24.5625 4.4375 24.125 C3.18839844 23.71701172 3.18839844 23.71701172 1.9140625 23.30078125 C0.3733674 22.77694492 -1.15735726 22.22027376 -2.6640625 21.60546875 C-10.06588087 18.70475615 -17.77168403 18.71694314 -25.625 18.4375 C-25.295 17.1175 -24.965 15.7975 -24.625 14.4375 C-15.715 14.4375 -6.805 14.4375 2.375 14.4375 C2.375 10.8075 2.375 7.1775 2.375 3.4375 C0.951875 3.499375 0.951875 3.499375 -0.5 3.5625 C-3.625 3.4375 -3.625 3.4375 -5.625 1.4375 C-4.00106095 -0.18643905 -2.24052751 0.11168793 0 0 Z "
          fill="#FD0BFE" transform="translate(98.625,56.5625)"/>
    <path d="M0 0 C0.11608726 3.27053517 0.18720711 6.5405418 0.25 9.8125 C0.30027344 11.2056543 0.30027344 11.2056543 0.3515625 12.62695312 C0.36445312 13.51962891 0.37734375 14.41230469 0.390625 15.33203125 C0.41157227 16.15421143 0.43251953 16.9763916 0.45410156 17.82348633 C0 20 0 20 -1.79003906 21.7175293 C-4.72637245 23.42152392 -7.72026952 24.18006738 -11 25 C-11.66 24.34 -12.32 23.68 -13 23 C-11.68 22.34 -10.36 21.68 -9 21 C-10.65 20.67 -12.3 20.34 -14 20 C-15.55853911 15.32438266 -15.83176064 10.86579972 -15 6 C-11.16734435 -0.14627095 -6.70127547 -0.25827833 0 0 Z "
          fill="#F913F9" transform="translate(64,57)"/>
    <path d="M0 0 C4.34185387 1.9661225 6.85617758 4.71235515 9 9 C9.76936703 14.78486096 9.84524321 19.62535027 6.375 24.5 C3.60971476 27.6677446 1.04654343 29.65115219 -3 31 C-6.375 31.1875 -6.375 31.1875 -9 31 C-8.566875 29.93072266 -8.566875 29.93072266 -8.125 28.83984375 C-6.65618398 25.13210331 -5.2971392 21.38985041 -3.94921875 17.63671875 C-3.2553905 15.70941807 -2.54012312 13.78979768 -1.8125 11.875 C-0.70589323 7.95931452 -0.34164015 4.04573863 0 0 Z "
          fill="#ED0303" transform="translate(138,70)"/>
    <path d="M0 0 C0.103125 1.27875 0.20625 2.5575 0.3125 3.875 C1.187054 11.70903301 3.77715154 18.85368385 7 26 C7.67276716 27.6642135 8.34206835 29.32986582 9 31 C4.18734958 31.6015813 1.7223786 31.18879636 -2.25 28.3125 C-6.15142795 25.04618823 -8.67247979 22.70307815 -9.30859375 17.453125 C-9.57729034 11.42780748 -9.11187593 7.69928678 -5 3 C-4.46375 2.38125 -3.9275 1.7625 -3.375 1.125 C-2 0 -2 0 0 0 Z "
          fill="#03EE03" transform="translate(22,70)"/>
    <path d="M0 0 C0.33 0.99 0.66 1.98 1 3 C-1.04074305 6.57130033 -2.55753136 8.7050209 -6 11 C-6 6.9666466 -4.39120082 5.16482462 -2 2 C-1.34 2 -0.68 2 0 2 C0 1.34 0 0.68 0 0 Z M-9 10 C-8.34 10 -7.68 10 -7 10 C-7 11.65 -7 13.3 -7 15 C-7.66 15 -8.32 15 -9 15 C-9 15.66 -9 16.32 -9 17 C-10.97564942 17.6565141 -12.955756 18.29961906 -14.9375 18.9375 C-16.03964844 19.29714844 -17.14179687 19.65679687 -18.27734375 20.02734375 C-26.03350703 22.05387539 -33.770306 22.16405461 -41.75 22.125 C-42.70922363 22.12306641 -43.66844727 22.12113281 -44.65673828 22.11914062 C-51.81150184 22.07574189 -58.88109161 21.75218655 -66 21 C-65.34 19.68 -64.68 18.36 -64 17 C-50.47 17 -36.94 17 -23 17 C-23 16.34 -23 15.68 -23 15 C-22.07316406 14.72285156 -21.14632812 14.44570312 -20.19140625 14.16015625 C-18.99386719 13.79792969 -17.79632813 13.43570313 -16.5625 13.0625 C-15.36753906 12.70285156 -14.17257813 12.34320313 -12.94140625 11.97265625 C-10.14132455 11.29110858 -10.14132455 11.29110858 -9 10 Z "
          fill="#101313" transform="translate(123,108)"/>
    <path d="M0 0 C0.95310059 0.01047363 1.90620117 0.02094727 2.88818359 0.03173828 C4.43505859 0.04140625 4.43505859 0.04140625 6.01318359 0.05126953 C7.63353516 0.07640625 7.63353516 0.07640625 9.28662109 0.10205078 C10.37458984 0.11107422 11.46255859 0.12009766 12.58349609 0.12939453 C15.27642261 0.15301669 17.96891365 0.18595522 20.66162109 0.22705078 C20.99162109 1.87705078 21.32162109 3.52705078 21.66162109 5.22705078 C20.87658203 5.31341797 20.09154297 5.39978516 19.28271484 5.48876953 C12.34747771 6.41630431 7.87029259 7.47130724 2.66162109 12.22705078 C1.21111613 14.36080815 1.21111613 14.36080815 0.66162109 16.22705078 C-0.98837891 15.89705078 -2.63837891 15.56705078 -4.33837891 15.22705078 C-4.39224519 13.10232503 -4.43110961 10.97721426 -4.46337891 8.85205078 C-4.48658203 7.66869141 -4.50978516 6.48533203 -4.53369141 5.26611328 C-4.29759152 1.59239901 -3.78006449 0.36703487 0 0 Z "
          fill="#F5072F" transform="translate(42.33837890625,42.77294921875)"/>
    <path d="M0 0 C6.0546875 1.66015625 6.0546875 1.66015625 8 3 C8.66 5.31 9.32 7.62 10 10 C15.28 10 20.56 10 26 10 C25.01 11.65 24.02 13.3 23 15 C22.34 14.34 21.68 13.68 21 13 C20.34 14.98 19.68 16.96 19 19 C16.03 19.33 13.06 19.66 10 20 C10 19.34 10 18.68 10 18 C9.34 18 8.68 18 8 18 C5 13.61538462 5 13.61538462 5 11 C2.525 10.01 2.525 10.01 0 9 C0 6.03 0 3.06 0 0 Z "
          fill="#240F06" transform="translate(65,49)"/>
    <path d="M0 0 C0.99 0.495 0.99 0.495 2 1 C3.87379605 1.07033769 5.75001102 1.0843022 7.625 1.0625 C8.62789062 1.05347656 9.63078125 1.04445313 10.6640625 1.03515625 C11.43492188 1.02355469 12.20578125 1.01195313 13 1 C13 1.33 13 1.66 13 2 C9.7 2 6.4 2 3 2 C3 13.55 3 25.1 3 37 C15.87 37 28.74 37 42 37 C42 33.7 42 30.4 42 27 C33.42 27 24.84 27 16 27 C16 26.67 16 26.34 16 26 C24.91 26 33.82 26 43 26 C43 29.96 43 33.92 43 38 C39.86002907 39.56998547 36.51406048 39.09987633 33.0703125 39.0625 C32.28357147 39.05871338 31.49683044 39.05492676 30.68624878 39.05102539 C27.31501978 39.03465513 23.94391111 39.00658012 20.57275391 38.97949219 C18.11361248 38.96139976 15.65449085 38.94930742 13.1953125 38.9375 C12.4347757 38.92920166 11.67423889 38.92090332 10.89065552 38.91235352 C7.41688695 38.89628237 4.34480291 39.06450867 1 40 C0 39 0 39 -0.11352539 35.30639648 C-0.11336624 33.66128708 -0.10766988 32.01617269 -0.09765625 30.37109375 C-0.0962413 29.50686295 -0.09482635 28.64263214 -0.09336853 27.75221252 C-0.08775239 24.98060708 -0.07519719 22.2090812 -0.0625 19.4375 C-0.05748708 17.5631522 -0.05292381 15.68880315 -0.04882812 13.81445312 C-0.03777772 9.20960456 -0.0205023 4.60481579 0 0 Z "
          fill="#FEFE26" transform="translate(73,76)"/>
    <path d="M0 0 C0.33 0 0.66 0 1 0 C1 2.64 1 5.28 1 8 C1.66 8 2.32 8 3 8 C3 6.02 3 4.04 3 2 C8.28 2 13.56 2 19 2 C19.33 2.99 19.66 3.98 20 5 C19.40832031 5.37511719 18.81664063 5.75023437 18.20703125 6.13671875 C12.84184328 9.57298479 12.84184328 9.57298479 8.25 13.9375 C7.5075 14.618125 6.765 15.29875 6 16 C1.80952381 15.80952381 1.80952381 15.80952381 0 14 C-0.07271741 11.64686445 -0.08370868 9.29166332 -0.0625 6.9375 C-0.05347656 5.64714844 -0.04445313 4.35679688 -0.03515625 3.02734375 C-0.02355469 2.02832031 -0.01195313 1.02929688 0 0 Z "
          fill="#F9030B" transform="translate(73,44)"/>
    <path d="M0 0 C2.31 0 4.62 0 7 0 C7.17509799 4.35365427 7.2811281 8.70639697 7.375 13.0625 C7.45041016 14.90618164 7.45041016 14.90618164 7.52734375 16.78710938 C7.69313098 27.03828666 7.69313098 27.03828666 4.1015625 31.37109375 C1.44071967 34 1.44071967 34 -1 34 C-1.66 34.66 -2.32 35.32 -3 36 C-2.66473046 32.31203507 -1.92601102 30.91121322 0.5 28 C3.92314152 23.33129882 3.77792561 18.68275855 3.8125 13.0625 C3.83763672 12.09248047 3.86277344 11.12246094 3.88867188 10.12304688 C3.94716344 7.74828939 3.98371949 5.37535868 4 3 C3.34 3 2.68 3 2 3 C2.33 7.62 2.66 12.24 3 17 C2.34 17.33 1.68 17.66 1 18 C-2.13780831 13.29328753 -1.25995333 7.81967328 -0.5 2.5 C-0.335 1.675 -0.17 0.85 0 0 Z "
          fill="#2A0C2A" transform="translate(41,59)"/>
    <path d="M0 0 C0 12.21 0 24.42 0 37 C-0.33 37 -0.66 37 -1 37 C-1.33 25.78 -1.66 14.56 -2 3 C-7.53234759 4.66678162 -7.53234759 4.66678162 -11 8 C-11.66 8 -12.32 8 -13 8 C-13 17.24 -13 26.48 -13 36 C-14.485 36.495 -14.485 36.495 -16 37 C-16.36718794 32.98271172 -16.67214666 28.96581078 -16.92163086 24.93945312 C-17.01489571 23.57264618 -17.12470677 22.20685921 -17.25170898 20.84277344 C-17.65469565 16.44363609 -17.86070889 12.34553833 -17 8 C-13.09081034 3.41110485 -6.08976851 0 0 0 Z "
          fill="#40FB40" transform="translate(64,78)"/>
    <path d="M0 0 C2.31 0 4.62 0 7 0 C7 4.29 7 8.58 7 13 C3.7 13.33 0.4 13.66 -3 14 C-1.68 14.66 -0.36 15.32 1 16 C0.67 16.66 0.34 17.32 0 18 C0.99 18.33 1.98 18.66 3 19 C-4.875 18.125 -4.875 18.125 -6 17 C-8.69235776 16.76321284 -11.36498156 16.57801975 -14.0625 16.4375 C-15.20041992 16.37272461 -15.20041992 16.37272461 -16.36132812 16.30664062 C-18.24065438 16.20026367 -20.12030244 16.09960066 -22 16 C-21.67 14.68 -21.34 13.36 -21 12 C-12.09 12 -3.18 12 6 12 C6 8.37 6 4.74 6 1 C4.02 1 2.04 1 0 1 C0 0.67 0 0.34 0 0 Z "
          fill="#E209E2" transform="translate(95,59)"/>
    <path d="M0 0 C0 0.66 0 1.32 0 2 C-1.32 2.33 -2.64 2.66 -4 3 C-3.34 4.32 -2.68 5.64 -2 7 C-3.65 7.33 -5.3 7.66 -7 8 C-7 8.66 -7 9.32 -7 10 C-8.65 10 -10.3 10 -12 10 C-12 12.97 -12 15.94 -12 19 C-15 17 -15 17 -15.5390625 14.609375 C-15.76127575 7.2157343 -15.76127575 7.2157343 -13.7109375 3.94140625 C-9.34926076 -0.211149 -5.85432468 -0.6162447 0 0 Z "
          fill="#60DFFE" transform="translate(64,57)"/>
    <path d="M0 0 C0.83304657 -0.00191345 1.66609314 -0.0038269 2.52438354 -0.00579834 C4.28106998 -0.00715684 6.03776656 -0.0034838 7.79443359 0.00488281 C10.48948542 0.01561424 13.18387475 0.00496249 15.87890625 -0.0078125 C17.58593898 -0.00649138 19.29297129 -0.00392996 21 0 C21.80833282 -0.00404846 22.61666565 -0.00809692 23.44949341 -0.01226807 C29.13724971 0.03568721 29.13724971 0.03568721 31.3671875 2.265625 C24.7454841 3.11698687 18.29006642 3.42328373 11.6171875 3.390625 C10.65796387 3.38869141 9.69874023 3.38675781 8.71044922 3.38476562 C1.55568566 3.34136689 -5.51390411 3.01781155 -12.6328125 2.265625 C-8.72250576 -0.36739331 -4.52866359 -0.02279557 0 0 Z "
          fill="#021010" transform="translate(69.6328125,126.734375)"/>
    <path d="M0 0 C4.62 0 9.24 0 14 0 C14 0.99 14 1.98 14 3 C12.1015625 4.46484375 12.1015625 4.46484375 9.625 5.9375 C6.2476627 7.94781982 4.454978 9.29859991 3 13 C2.01 13 1.02 13 0 13 C0 8.71 0 4.42 0 0 Z " fill="#FE0306" transform="translate(40,46)"/>
    <path d="M0 0 C5.21777988 -0.56692176 9.7108226 -0.85084274 14.125 2.3125 C16.39158429 4.51538637 16.95359065 5.68961088 17.42578125 8.84765625 C17.43644319 11.60198951 17.30669666 14.26407106 17 17 C15.25 18.125 15.25 18.125 13 19 C11.68 18.34 10.36 17.68 9 17 C9.99 13.7 10.98 10.4 12 7 C12.66 7 13.32 7 14 7 C10.70435061 3.55454837 8.61124164 2.86254733 3.875 2.4375 C2.96492188 2.35371094 2.05484375 2.26992188 1.1171875 2.18359375 C0.41851562 2.12300781 -0.28015625 2.06242187 -1 2 C-0.67 1.34 -0.34 0.68 0 0 Z "
          fill="#95A8FE" transform="translate(94,57)"/>
    <path d="M0 0 C0.66 0 1.32 0 2 0 C4.36239446 6.33551243 5.65788744 12.38291038 6.5703125 19.08203125 C6.91945677 21.45303823 7.36336775 23.6936042 8 26 C6.1015625 25.72265625 6.1015625 25.72265625 4 25 C2.76064573 22.2829541 1.83444693 19.8390946 1 17 C0.79246094 16.33097656 0.58492187 15.66195312 0.37109375 14.97265625 C-0.97624301 10.21457888 -1.25996502 5.93933543 -1 1 C-0.67 0.67 -0.34 0.34 0 0 Z "
          fill="#031404" transform="translate(23,70)"/>
    <path d="M0 0 C4.875 4.75 4.875 4.75 6 7 C5.814375 7.763125 5.62875 8.52625 5.4375 9.3125 C4.90542749 12.5809454 5.74909789 13.98311843 7 17 C7.125 20.3125 7.125 20.3125 7 23 C4 21 4 21 3.4453125 19.08203125 C3.33960937 18.33308594 3.23390625 17.58414063 3.125 16.8125 C2.18753017 11.80188537 0.09703284 8.99354235 -3 5 C-3 3 -3 3 -1.5 1.375 C-1.005 0.92125 -0.51 0.4675 0 0 Z "
          fill="#0B0912" transform="translate(118,84)"/>
    <path d="M0 0 C2.97 0 5.94 0 9 0 C8.34 1.32 7.68 2.64 7 4 C6.34 3.34 5.68 2.68 5 2 C4.34 3.98 3.68 5.96 3 8 C0.36 8 -2.28 8 -5 8 C-5.66 6.02 -6.32 4.04 -7 2 C-4.69 2 -2.38 2 0 2 C0 1.34 0 0.68 0 0 Z " fill="#020303" transform="translate(81,60)"/>
    <path d="M0 0 C3.16130459 4.21507278 3.3367697 5.06071112 3 10 C3.99 10 4.98 10 6 10 C6.33 9.34 6.66 8.68 7 8 C7.82638376 10.89234315 8 12.88742431 8 16 C4.04 16.495 4.04 16.495 0 17 C0 11.39 0 5.78 0 0 Z " fill="#300C32" transform="translate(64,60)"/>
    <path d="M0 0 C1.5 1.3125 1.5 1.3125 3 3 C3 3.99 3 4.98 3 6 C3.66 6 4.32 6 5 6 C9.65923456 17.69332168 11.62215309 27.43927402 10 40 C9.67 40 9.34 40 9 40 C9.01160156 39.41734375 9.02320313 38.8346875 9.03515625 38.234375 C9.10993846 31.43987745 8.65055041 24.76107745 8 18 C7.34 18 6.68 18 6 18 C5.17934931 16.12855305 4.3688416 14.25265664 3.5625 12.375 C2.88380859 10.80878906 2.88380859 10.80878906 2.19140625 9.2109375 C1.04198295 6.11314749 0.42688777 3.26789946 0 0 Z "
          fill="#030317" transform="translate(124,38)"/>
    <path d="M0 0 C1.65 0 3.3 0 5 0 C5 8.25 5 16.5 5 25 C4.67 25 4.34 25 4 25 C4 17.08 4 9.16 4 1 C3.34 1 2.68 1 2 1 C2.33 5.62 2.66 10.24 3 15 C2.01 15.495 2.01 15.495 1 16 C-1.54612278 12.18081584 -1.3165912 8.41418585 -1 4 C-0.5 1.5 -0.5 1.5 0 0 Z " fill="#140426" transform="translate(41,61)"/>
    <path d="M0 0 C16.81540901 2.58464695 16.81540901 2.58464695 21 8 C21 8.33 21 8.66 21 9 C14.73 9 8.46 9 2 9 C2 8.67 2 8.34 2 8 C8.435 7.505 8.435 7.505 15 7 C14.00097656 6.74605469 13.00195312 6.49210937 11.97265625 6.23046875 C10.6690937 5.88347728 9.36571765 5.5357846 8.0625 5.1875 C7.40314453 5.02185547 6.74378906 4.85621094 6.06445312 4.68554688 C4.16015625 4.16796875 4.16015625 4.16796875 1 3 C0.67 2.01 0.34 1.02 0 0 Z "
          fill="#FEFC1B" transform="translate(87,76)"/>
    <path d="M0 0 C1.27133789 0.00966797 1.27133789 0.00966797 2.56835938 0.01953125 C3.8899707 0.04466797 3.8899707 0.04466797 5.23828125 0.0703125 C6.57729492 0.08384766 6.57729492 0.08384766 7.94335938 0.09765625 C10.14610439 0.12121502 12.34830713 0.15410921 14.55078125 0.1953125 C14.67578125 4.9453125 14.67578125 4.9453125 13.55078125 7.1953125 C8.84308894 5.36454327 8.84308894 5.36454327 6.76953125 4.1640625 C3.91902598 2.91947569 1.39724652 2.77225589 -1.69921875 2.5703125 C-2.776875 2.49554688 -3.85453125 2.42078125 -4.96484375 2.34375 C-5.7846875 2.29476562 -6.60453125 2.24578125 -7.44921875 2.1953125 C-4.2960709 0.09321393 -3.58818794 -0.0481636 0 0 Z "
          fill="#FE030A" transform="translate(100.44921875,45.8046875)"/>
    <path d="M0 0 C4.54919918 1.92077299 7.02430549 3.39004615 9 8 C9.1875 10.8125 9.1875 10.8125 9 13 C7.02 13 5.04 13 3 13 C1.70074209 8.66914029 0.656379 4.48525648 0 0 Z " fill="#D6D60F" transform="translate(64,57)"/>
    <path d="M0 0 C0.36947791 7.38955823 0.36947791 7.38955823 -1.4375 10.375 C-1.953125 10.91125 -2.46875 11.4475 -3 12 C-3.33 12.66 -3.66 13.32 -4 14 C-4.99 14 -5.98 14 -7 14 C-7 14.99 -7 15.98 -7 17 C-9.97 16.01 -12.94 15.02 -16 14 C-12.99163894 11.99442596 -10.42851156 11.07140986 -7 10 C-6.01 9.67 -5.02 9.34 -4 9 C-3.87625 7.700625 -3.7525 6.40125 -3.625 5.0625 C-3.4140625 2.84765625 -3.4140625 2.84765625 -3 1 C-1 0 -1 0 0 0 Z "
          fill="#FE2CF3" transform="translate(114,65)"/>
    <path d="M0 0 C2.38003355 1.26935122 2.91747992 2.52640646 3.875 5 C2.225 5.33 0.575 5.66 -1.125 6 C-1.125 6.66 -1.125 7.32 -1.125 8 C-2.775 8 -4.425 8 -6.125 8 C-6.125 4 -6.125 4 -4.375 1.6875 C-2.125 0 -2.125 0 0 0 Z " fill="#E74CEA" transform="translate(58.125,59)"/>
    <path d="M0 0 C0.74362793 0.01047363 1.48725586 0.02094727 2.25341797 0.03173828 C3.46191406 0.04140625 3.46191406 0.04140625 4.69482422 0.05126953 C5.95746094 0.07640625 5.95746094 0.07640625 7.24560547 0.10205078 C8.51984375 0.11558594 8.51984375 0.11558594 9.81982422 0.12939453 C11.9202043 0.15299431 14.02043991 0.18886595 16.12060547 0.22705078 C16.12060547 0.55705078 16.12060547 0.88705078 16.12060547 1.22705078 C12.82060547 1.22705078 9.52060547 1.22705078 6.12060547 1.22705078 C6.12060547 1.88705078 6.12060547 2.54705078 6.12060547 3.22705078 C3.81060547 3.22705078 1.50060547 3.22705078 -0.87939453 3.22705078 C-0.52876953 3.82517578 -0.17814453 4.42330078 0.18310547 5.03955078 C1.12060547 7.22705078 1.12060547 7.22705078 0.12060547 10.22705078 C0.12060547 9.56705078 0.12060547 8.90705078 0.12060547 8.22705078 C-0.53939453 8.22705078 -1.19939453 8.22705078 -1.87939453 8.22705078 C-2.53939453 6.24705078 -3.19939453 4.26705078 -3.87939453 2.22705078 C-1.87939453 0.22705078 -1.87939453 0.22705078 0 0 Z "
          fill="#2A0A33" transform="translate(74.87939453125,58.77294921875)"/>
    <path d="M0 0 C0.99 0.33 1.98 0.66 3 1 C2.0479279 2.00596297 1.08812654 3.00461563 0.125 4 C-0.40867187 4.556875 -0.94234375 5.11375 -1.4921875 5.6875 C-3 7 -3 7 -5 7 C-5.20625 7.61875 -5.4125 8.2375 -5.625 8.875 C-7.54775888 11.84653645 -9.66594527 12.13024659 -13 13 C-13.33 12.34 -13.66 11.68 -14 11 C-13.40832031 10.62488281 -12.81664063 10.24976563 -12.20703125 9.86328125 C-7.64018376 6.90563287 -3.6682206 4.02320969 0 0 Z "
          fill="#030E0E" transform="translate(112,129)"/>
    <path d="M0 0 C0.66 0.99 1.32 1.98 2 3 C1.20703125 5.8125 1.20703125 5.8125 -0.1875 9 C-0.63480469 10.051875 -1.08210938 11.10375 -1.54296875 12.1875 C-2.83120102 14.67416819 -3.89102628 16.20830551 -6 18 C-5.65532373 10.76179827 -3.89785009 6.08409811 0 0 Z " fill="#030316"
          transform="translate(33,41)"/>
    <path d="M0 0 C3 2 3 2 3.58984375 3.98828125 C3.70457031 4.75527344 3.81929687 5.52226563 3.9375 6.3125 C4.93911645 11.54783978 7.28036597 14.28036597 11 18 C10.01 18.33 9.02 18.66 8 19 C8 18.34 8 17.68 8 17 C7.01 16.67 6.02 16.34 5 16 C5 15.34 5 14.68 5 14 C4.34 14 3.68 14 3 14 C0.56574762 9.03006806 -0.34615998 5.65394631 0 0 Z "
          fill="#1A1A1A" transform="translate(35,101)"/>
    <path d="M0 0 C1.1484375 1.578125 1.1484375 1.578125 2 4 C1.1015625 7.234375 1.1015625 7.234375 -0.375 10.75 C-0.85710937 11.92046875 -1.33921875 13.0909375 -1.8359375 14.296875 C-2.22007812 15.18890625 -2.60421875 16.0809375 -3 17 C-3.99 17 -4.98 17 -6 17 C-5.01 13.37 -4.02 9.74 -3 6 C-2.34 6 -1.68 6 -1 6 C-0.67 4.02 -0.34 2.04 0 0 Z "
          fill="#130302" transform="translate(134,81)"/>
    <path d="M0 0 C0.66 0 1.32 0 2 0 C2.33 2.31 2.66 4.62 3 7 C3.99 6.67 4.98 6.34 6 6 C4.125 10.75 4.125 10.75 3 13 C2.01 13 1.02 13 0 13 C0 8.71 0 4.42 0 0 Z " fill="#FE030E" transform="translate(40,46)"/>
    <path d="M0 0 C2.475 0.99 2.475 0.99 5 2 C5 3.98 5 5.96 5 8 C3.35 8.33 1.7 8.66 0 9 C0 6.03 0 3.06 0 0 Z " fill="#110B0B" transform="translate(65,49)"/>
    <path d="M0 0 C8.62242152 -0.76681614 8.62242152 -0.76681614 12 1.11328125 C13.625 2.5 13.625 2.5 16 5 C15.67 5.99 15.34 6.98 15 8 C14.38125 7.360625 13.7625 6.72125 13.125 6.0625 C10.04569336 3.0737612 8.05816006 2.8129118 3.875 2.4375 C2.96492188 2.35371094 2.05484375 2.26992188 1.1171875 2.18359375 C0.41851562 2.12300781 -0.28015625 2.06242187 -1 2 C-0.67 1.34 -0.34 0.68 0 0 Z "
          fill="#62E1FC" transform="translate(94,57)"/>
    <path d="M0 0 C-0.66 0 -1.32 0 -2 0 C-2 0.66 -2 1.32 -2 2 C-3.57533086 2.86883706 -5.16064509 3.71959068 -6.75 4.5625 C-7.63171875 5.03816406 -8.5134375 5.51382812 -9.421875 6.00390625 C-12.20701188 7.07998186 -13.26980214 7.06528748 -16 6 C-14.39805929 5.01719585 -12.79336258 4.03888283 -11.1875 3.0625 C-10.29417969 2.51722656 -9.40085937 1.97195312 -8.48046875 1.41015625 C-3.78230501 -1.26076834 -3.78230501 -1.26076834 0 0 Z "
          fill="#020212" transform="translate(65,18)"/>
    <path d="M0 0 C2.7885289 -0.22107787 5.34653181 -0.28107535 8.125 -0.1875 C8.87910156 -0.17396484 9.63320312 -0.16042969 10.41015625 -0.14648438 C12.27374127 -0.11109985 14.13695978 -0.05729167 16 0 C16 0.66 16 1.32 16 2 C12.24600202 3.2039337 8.66782588 3.09877617 4.75 3.0625 C3.48671875 3.05347656 2.2234375 3.04445312 0.921875 3.03515625 C-0.04234375 3.02355469 -1.0065625 3.01195312 -2 3 C-1.34 2.01 -0.68 1.02 0 0 Z "
          fill="#032F2F" transform="translate(75,144)"/>
    <path d="M0 0 C1.32 0.33 2.64 0.66 4 1 C3.0409375 1.804375 3.0409375 1.804375 2.0625 2.625 C-0.38529404 5.44367193 -0.66714612 7.33860732 -1 11 C-1.99 11 -2.98 11 -4 11 C-3.56179109 6.44262737 -3.14958831 3.42346555 0 0 Z " fill="#C4C515" transform="translate(91,59)"/>
    <path d="M0 0 C-1.875 4.75 -1.875 4.75 -3 7 C-4.65 6.67 -6.3 6.34 -8 6 C-6.15596224 0.86303767 -5.73213298 0 0 0 Z " fill="#DCDC06" transform="translate(99,61)"/>
    <path d="M0 0 C1.35208914 0.62775567 2.68163705 1.30419733 4 2 C5.99220557 2.68960962 7.99105606 3.36079057 10 4 C7 6 7 6 4.73828125 5.7578125 C3.93777344 5.54898438 3.13726562 5.34015625 2.3125 5.125 C1.50425781 4.92132813 0.69601563 4.71765625 -0.13671875 4.5078125 C-0.75160156 4.34023437 -1.36648437 4.17265625 -2 4 C-2 3.01 -2 2.02 -2 1 C-1.34 0.67 -0.68 0.34 0 0 Z "
          fill="#0D1515" transform="translate(48,120)"/>
    <path d="M0 0 C1.98 0 3.96 0 6 0 C5.67 2.64 5.34 5.28 5 8 C1.37 8 -2.26 8 -6 8 C-6 7.67 -6 7.34 -6 7 C-3.36 7 -0.72 7 2 7 C2.66 5.02 3.32 3.04 4 1 C2.68 0.67 1.36 0.34 0 0 Z " fill="#180913" transform="translate(82,61)"/>
    <path d="M0 0 C4 2 4 2 5.3125 5 C6 8 6 8 5 10 C4.01 10 3.02 10 2 10 C1.34 6.7 0.68 3.4 0 0 Z " fill="#929505" transform="translate(65,60)"/>
    <path d="M0 0 C0.33 0.99 0.66 1.98 1 3 C-1.04074305 6.57130033 -2.55753136 8.7050209 -6 11 C-6 6.9666466 -4.39120082 5.16482462 -2 2 C-1.34 2 -0.68 2 0 2 C0 1.34 0 0.68 0 0 Z M-9 10 C-8.34 10 -7.68 10 -7 10 C-7 10.99 -7 11.98 -7 13 C-7.66 12.67 -8.32 12.34 -9 12 C-9 11.34 -9 10.68 -9 10 Z "
          fill="#1A1A1B" transform="translate(123,108)"/>
    <path d="M0 0 C0.66 0 1.32 0 2 0 C2 0.66 2 1.32 2 2 C5.96 2 9.92 2 14 2 C14 2.33 14 2.66 14 3 C13.26394531 3.04898438 12.52789062 3.09796875 11.76953125 3.1484375 C10.30580078 3.26058594 10.30580078 3.26058594 8.8125 3.375 C7.84957031 3.44460937 6.88664062 3.51421875 5.89453125 3.5859375 C2.98491062 4.00215853 0.67109226 4.79874096 -2 6 C-2 5.01 -2 4.02 -2 3 C-1.34 3 -0.68 3 0 3 C0 2.01 0 1.02 0 0 Z "
          fill="#010303" transform="translate(73,67)"/>
    <path d="M0 0 C0.33 0 0.66 0 1 0 C1 1.98 1 3.96 1 6 C1.99 6 2.98 6 4 6 C4.33 5.34 4.66 4.68 5 4 C5.68707555 6.49064888 6 8.37886292 6 11 C4.02 11 2.04 11 0 11 C0 7.33333333 0 3.66666667 0 0 Z " fill="#423A16" transform="translate(66,64)"/>
    <path d="M0 0 C5.71658336 -0.45732667 8.48649253 0.47726246 13 4 C12.01 4.66 11.02 5.32 10 6 C6.7 4.35 3.4 2.7 0 1 C0 0.67 0 0.34 0 0 Z " fill="#040422" transform="translate(98,20)"/>
    <path d="M0 0 C3.63 1.32 7.26 2.64 11 4 C10.67 4.66 10.34 5.32 10 6 C5.43545749 5.45660208 2.0271824 4.20536179 -2 2 C-1.34 1.34 -0.68 0.68 0 0 Z " fill="#031111" transform="translate(59,139)"/>
    <path d="M0 0 C0.66 0.33 1.32 0.66 2 1 C2.125 7.75 2.125 7.75 1 10 C-0.32 10 -1.64 10 -3 10 C-2.01 6.7 -1.02 3.4 0 0 Z " fill="#3BF0FE" transform="translate(106,64)"/>
    <path d="M0 0 C0.36923077 7.38461538 0.36923077 7.38461538 -1.5 10.5 C-1.995 10.995 -2.49 11.49 -3 12 C-3.99 11.67 -4.98 11.34 -6 11 C-5.34 10.34 -4.68 9.68 -4 9 C-3.61596877 7.05848638 -3.61596877 7.05848638 -3.5 4.9375 C-3.335 3.638125 -3.17 2.33875 -3 1 C-1 0 -1 0 0 0 Z " fill="#EF43FE"
          transform="translate(114,65)"/>
    <path d="M0 0 C2 1 2 1 2.8125 2.6875 C4.45027346 5.87684831 6.65750026 8.28763188 9 11 C6 11 6 11 4.39453125 9.609375 C3.87246094 8.99578125 3.35039063 8.3821875 2.8125 7.75 C2.28269531 7.14671875 1.75289062 6.5434375 1.20703125 5.921875 C0 4 0 4 0 0 Z " fill="#032727"
          transform="translate(44,124)"/>
    <path d="M0 0 C3 1 3 1 4.1875 3.1875 C5.07334979 6.25390311 5.14770318 8.82438155 5 12 C2 10 2 10 1.26953125 7.6171875 C1.11871094 6.71226563 0.96789062 5.80734375 0.8125 4.875 C0.65394531 3.96492188 0.49539062 3.05484375 0.33203125 2.1171875 C0.22246094 1.41851562 0.11289063 0.71984375 0 0 Z "
          fill="#131313" transform="translate(120,95)"/>
    <path d="M0 0 C2.9375 1.1875 2.9375 1.1875 6 3 C6.875 5.6875 6.875 5.6875 7 8 C6.34 7.34 5.68 6.68 5 6 C4.34 7.32 3.68 8.64 3 10 C2.87625 9.030625 2.7525 8.06125 2.625 7.0625 C2.41875 6.051875 2.2125 5.04125 2 4 C1.34 3.67 0.68 3.34 0 3 C0 2.01 0 1.02 0 0 Z " fill="#E655FE"
          transform="translate(102,59)"/>
    <path d="M0 0 C2.31 0 4.62 0 7 0 C7 0.99 7 1.98 7 3 C2.545 3.495 2.545 3.495 -2 4 C-2 3.34 -2 2.68 -2 2 C-1.34 2 -0.68 2 0 2 C0 1.34 0 0.68 0 0 Z " fill="#F923FE" transform="translate(57,54)"/>
    <path d="M0 0 C0.99 0.33 1.98 0.66 3 1 C3 1.66 3 2.32 3 3 C4.32 3.66 5.64 4.32 7 5 C6.34 5.66 5.68 6.32 5 7 C2.69 5.35 0.38 3.7 -2 2 C-1.34 1.34 -0.68 0.68 0 0 Z " fill="#FA2AF2" transform="translate(109,81)"/>
    <path d="M0 0 C2.0625 0.4375 2.0625 0.4375 4 1 C3.34 2.32 2.68 3.64 2 5 C0.68 5 -0.64 5 -2 5 C-1.125 1.125 -1.125 1.125 0 0 Z " fill="#21F924" transform="translate(55,62)"/>
    <path d="M0 0 C-2.39223697 2.39223697 -3.67759676 2.6758631 -7 3 C-7.99 2.34 -8.98 1.68 -10 1 C-6.21812119 -0.83691257 -4.05431692 -1.15837626 0 0 Z " fill="#0D1515" transform="translate(116,122)"/>
    <path d="M0 0 C4 4.75 4 4.75 4 7 C3.34 7 2.68 7 2 7 C2 7.66 2 8.32 2 9 C1.01 9 0.02 9 -1 9 C-0.67 8.01 -0.34 7.02 0 6 C0.03920815 4.00038436 0.04443347 1.99950636 0 0 Z " fill="#D567FE" transform="translate(51,68)"/>
    <path d="M0 0 C0.99 0.33 1.98 0.66 3 1 C-0.465 3.97 -0.465 3.97 -4 7 C-4 4 -4 4 -2 1.8125 C-1.34 1.214375 -0.68 0.61625 0 0 Z " fill="#032929" transform="translate(112,129)"/>
    <path d="M0 0 C-0.33 0.99 -0.66 1.98 -1 3 C-0.01 3.33 0.98 3.66 2 4 C-4.15234375 3.4140625 -4.15234375 3.4140625 -6 3 C-6.33 2.34 -6.66 1.68 -7 1 C-4.53721199 -0.231394 -2.7204945 -0.07159196 0 0 Z " fill="#FE57DF" transform="translate(96,74)"/>
    <path d="M0 0 C0.66 0.33 1.32 0.66 2 1 C-0.31 3.31 -2.62 5.62 -5 8 C-5.66 7.67 -6.32 7.34 -7 7 C-4.66666667 4.66666667 -2.33333333 2.33333333 0 0 Z " fill="#FE03D4" transform="translate(50,50)"/>
    <path d="M0 0 C0.33 0 0.66 0 1 0 C1 3.3 1 6.6 1 10 C1.66 10 2.32 10 3 10 C3 10.99 3 11.98 3 13 C2.01 13 1.02 13 0 13 C0 8.71 0 4.42 0 0 Z " fill="#FC0420" transform="translate(40,46)"/>
    <path d="M0 0 C0.66 0.33 1.32 0.66 2 1 C2 2.98 2 4.96 2 7 C1.01 6.67 0.02 6.34 -1 6 C-1.042721 4.33388095 -1.04063832 2.66617115 -1 1 C-0.67 0.67 -0.34 0.34 0 0 Z " fill="#02020A" transform="translate(68,50)"/>
    <path d="M0 0 C0.93065133 2.60582371 1.14917407 3.64198224 0.0625 6.25 C-0.4634375 7.11625 -0.4634375 7.11625 -1 8 C-2.0625 6.125 -2.0625 6.125 -3 4 C-2.67 3.34 -2.34 2.68 -2 2 C-1.34 2 -0.68 2 0 2 C0 1.34 0 0.68 0 0 Z " fill="#030317" transform="translate(131,83)"/>
    <path d="M0 0 C2.475 0.99 2.475 0.99 5 2 C4.67 3.65 4.34 5.3 4 7 C2 5.1875 2 5.1875 0 3 C0 2.01 0 1.02 0 0 Z " fill="#FA24FE" transform="translate(52,68)"/>
</svg>
